<svg width="18" height="18" viewBox="0 0 18 18" fill="none" xmlns="http://www.w3.org/2000/svg">
<path d="M6.75 8.25L3 4.5L6.75 0.75" stroke="#2D6A4F" stroke-linecap="round" stroke-linejoin="round"/>
<path d="M3 4.5H10.875C11.4167 4.5 11.9531 4.6067 12.4536 4.814C12.954 5.0213 13.4088 5.32514 13.7918 5.70818C14.1749 6.09123 14.4787 6.54596 14.686 7.04643C14.8933 7.5469 15 8.0833 15 8.625C15 9.1667 14.8933 9.7031 14.686 10.2036" stroke="#2D6A4F" stroke-linecap="round" stroke-linejoin="round"/>
<path d="M10.5 9.45312L14.25 13.2031L10.5 16.9531" stroke="#2D6A4F" stroke-linecap="round" stroke-linejoin="round"/>
<path d="M14.25 13.2031H6.375C5.8333 13.2031 5.2969 13.0964 4.79643 12.8891C4.29596 12.6818 3.84123 12.378 3.45818 11.9949C3.07514 11.6119 2.7713 11.1572 2.564 10.6567C2.3567 10.1562 2.25 9.61983 2.25 9.07812C2.25 8.53642 2.3567 8.00002 2.564 7.49956" stroke="#2D6A4F" stroke-linecap="round" stroke-linejoin="round"/>
</svg>
