<svg width="24" height="24" viewBox="0 0 24 24" fill="none" xmlns="http://www.w3.org/2000/svg">
<path d="M14.3691 1.38473C14.197 1.26475 13.9825 1.22235 13.7777 1.26783C13.5729 1.3133 13.3965 1.44249 13.2913 1.62403L9.64234 7.92249L6.25795 5.67562C5.96445 5.48077 5.57488 5.51646 5.32166 5.76141C1.40285 9.5524 0.672964 13.0213 1.62305 15.8648C2.5422 18.6157 4.96177 20.5416 6.85836 21.4859C8.79661 22.451 11.8199 23.0392 14.7259 22.6045C17.6559 22.1662 20.5642 20.6658 22.047 17.3584C23.5478 14.0106 22.4464 10.5917 20.6429 7.80165C18.8338 5.00275 16.2257 2.6789 14.3691 1.38473Z" fill="#FFD337" stroke="#FFD337" stroke-width="1.5" stroke-linejoin="round"/>
<path d="M13.9323 20.0588C15.6174 19.3228 19.0059 17.197 19.0794 14.5817" stroke="#FFE27D" stroke-width="1.5" stroke-linecap="round" stroke-linejoin="round"/>
</svg>
