<svg width="1038" height="666" viewBox="0 0 1038 666" fill="none" xmlns="http://www.w3.org/2000/svg">
<g filter="url(#filter0_d_743_337)">
<g clip-path="url(#clip0_743_337)">
<rect x="4" width="1030" height="658" rx="20" fill="white"/>
<circle cx="19.5" cy="-3.5" r="162" stroke="#009688" stroke-dasharray="6 6"/>
<path d="M962.907 542.071C962.907 510.883 973.746 452.466 1014.35 438.143C1024.77 434.469 1034 443.866 1034 454.911V638C1034 649.046 1025.05 658 1014 658H26C14.9543 658 6 649.046 6 638V606.011C6 584.693 38.9588 576.792 55.7218 589.963C94.3123 620.284 120.94 577.018 131.459 542.071C213.197 322.819 348.16 475.199 387.698 542.071C427.237 608.943 556.877 619.631 586.911 542.071C616.945 464.51 710.849 447.792 830.985 542.071C927.094 617.493 958.978 573.497 962.907 542.071Z" fill="#009688" fill-opacity="0.15"/>
<path d="M75.0933 535.014C75.0933 501.917 64.2466 439.913 23.6063 424.745C13.2578 420.883 4 430.286 4 441.332V638C4 649.046 12.9543 658 24 658H1012C1023.05 658 1032 649.046 1032 638V602.336C1032 580.771 998.145 573.06 981.347 586.584C943.259 617.249 916.975 571.789 906.541 535.014C824.803 302.417 689.84 464.072 650.302 535.014C610.763 605.956 481.123 617.296 451.089 535.014C421.055 452.733 327.151 434.997 207.015 535.014C110.906 615.028 79.0218 568.353 75.0933 535.014Z" fill="#009688" fill-opacity="0.15"/>
<circle cx="25" cy="25" r="25" transform="matrix(-0.176733 0.984259 0.984259 0.176733 731.553 0)" fill="#009688" fill-opacity="0.2"/>
<circle cx="11" cy="11" r="11" transform="matrix(-0.176733 0.984259 0.984259 0.176733 754.338 71.1465)" fill="#009688" fill-opacity="0.2"/>
<circle cx="7.5" cy="7.5" r="7.5" transform="matrix(-0.176733 0.984259 0.984259 0.176733 795.654 27.7656)" fill="#009688" fill-opacity="0.2"/>
</g>
</g>
<defs>
<filter id="filter0_d_743_337" x="0" y="0" width="1038" height="666" filterUnits="userSpaceOnUse" color-interpolation-filters="sRGB">
<feFlood flood-opacity="0" result="BackgroundImageFix"/>
<feColorMatrix in="SourceAlpha" type="matrix" values="0 0 0 0 0 0 0 0 0 0 0 0 0 0 0 0 0 0 127 0" result="hardAlpha"/>
<feOffset dy="4"/>
<feGaussianBlur stdDeviation="2"/>
<feComposite in2="hardAlpha" operator="out"/>
<feColorMatrix type="matrix" values="0 0 0 0 0 0 0 0 0 0 0 0 0 0 0 0 0 0 0.25 0"/>
<feBlend mode="normal" in2="BackgroundImageFix" result="effect1_dropShadow_743_337"/>
<feBlend mode="normal" in="SourceGraphic" in2="effect1_dropShadow_743_337" result="shape"/>
</filter>
<clipPath id="clip0_743_337">
<rect x="4" width="1030" height="658" rx="20" fill="white"/>
</clipPath>
</defs>
</svg>
