<svg width="1030" height="658" viewBox="0 0 1030 658" fill="none" xmlns="http://www.w3.org/2000/svg">
<g clip-path="url(#clip0_723_264)">
<rect width="1030" height="658" rx="20" fill="#172D2D"/>
<circle cx="15.5" cy="-3.5" r="162" stroke="#009688" stroke-dasharray="6 6"/>
<path d="M958.907 540.071C958.907 508.883 969.746 450.466 1010.35 436.143C1020.77 432.469 1030 441.866 1030 452.911V636C1030 647.046 1021.05 656 1010 656H22C10.9543 656 2 647.046 2 636V604.011C2 582.693 34.9588 574.792 51.7218 587.963C90.3123 618.284 116.94 575.018 127.459 540.071C209.197 320.819 344.16 473.199 383.698 540.071C423.237 606.943 552.877 617.631 582.911 540.071C612.945 462.51 706.849 445.792 826.985 540.071C923.094 615.493 954.978 571.497 958.907 540.071Z" fill="#009688" fill-opacity="0.15"/>
<path d="M71.0933 533.014C71.0933 499.917 60.2466 437.913 19.6063 422.745C9.25781 418.883 0 428.286 0 439.332V636C0 647.046 8.95435 656 20 656H1008C1019.05 656 1028 647.046 1028 636V600.336C1028 578.771 994.145 571.06 977.347 584.584C939.259 615.249 912.975 569.789 902.541 533.014C820.803 300.417 685.84 462.072 646.302 533.014C606.763 603.956 477.123 615.296 447.089 533.014C417.055 450.733 323.151 432.997 203.015 533.014C106.906 613.028 75.0218 566.353 71.0933 533.014Z" fill="#009688" fill-opacity="0.15"/>
<circle cx="25" cy="25" r="25" transform="matrix(-0.176733 0.984259 0.984259 0.176733 727.553 0)" fill="#009688" fill-opacity="0.2"/>
<circle cx="11" cy="11" r="11" transform="matrix(-0.176733 0.984259 0.984259 0.176733 750.338 71.1465)" fill="#009688" fill-opacity="0.2"/>
<circle cx="7.5" cy="7.5" r="7.5" transform="matrix(-0.176733 0.984259 0.984259 0.176733 791.654 27.7656)" fill="#009688" fill-opacity="0.2"/>
</g>
<defs>
<clipPath id="clip0_723_264">
<rect width="1030" height="658" rx="20" fill="white"/>
</clipPath>
</defs>
</svg>
