<svg width="18" height="18" viewBox="0 0 18 18" fill="none" xmlns="http://www.w3.org/2000/svg">
<path d="M5.4071 11.25L1.9946 5.355C1.84745 5.10065 1.77825 4.80869 1.79558 4.51536C1.81291 4.22203 1.91602 3.94025 2.0921 3.705L3.2996 2.1C3.43932 1.91371 3.6205 1.7625 3.82878 1.65836C4.03706 1.55422 4.26673 1.5 4.4996 1.5H13.4996C13.7325 1.5 13.9621 1.55422 14.1704 1.65836C14.3787 1.7625 14.5599 1.91371 14.6996 2.1L15.8996 3.705C16.0768 3.93949 16.1813 4.22088 16.2 4.51423C16.2186 4.80757 16.1507 5.09994 16.0046 5.355L12.5921 11.25" stroke="#2D6A4F" stroke-linecap="round" stroke-linejoin="round"/>
<path d="M8.24984 8.9999L3.83984 1.6499" stroke="#2D6A4F" stroke-linecap="round" stroke-linejoin="round"/>
<path d="M9.75 8.9999L14.16 1.6499" stroke="#2D6A4F" stroke-linecap="round" stroke-linejoin="round"/>
<path d="M6 5.25H12" stroke="#2D6A4F" stroke-linecap="round" stroke-linejoin="round"/>
<path d="M9 16.5C11.0711 16.5 12.75 14.8211 12.75 12.75C12.75 10.6789 11.0711 9 9 9C6.92893 9 5.25 10.6789 5.25 12.75C5.25 14.8211 6.92893 16.5 9 16.5Z" stroke="#2D6A4F" stroke-linecap="round" stroke-linejoin="round"/>
<path d="M9 13.5V12H8.625" stroke="#2D6A4F" stroke-linecap="round" stroke-linejoin="round"/>
</svg>
