<svg width="34" height="30" viewBox="0 0 34 30" fill="none" xmlns="http://www.w3.org/2000/svg">
<path d="M34 7.5V26.7857C34 28.5603 32.5723 30 30.8125 30H3.1875C1.42773 30 0 28.5603 0 26.7857V7.5C0 5.72545 1.42773 4.28571 3.1875 4.28571H9.03125L9.84805 2.08259C10.3129 0.830357 11.5016 0 12.8297 0H21.1637C22.4918 0 23.6805 0.830357 24.1453 2.08259L24.9687 4.28571H30.8125C32.5723 4.28571 34 5.72545 34 7.5ZM24.9687 17.1429C24.9687 12.7098 21.3961 9.10714 17 9.10714C12.6039 9.10714 9.03125 12.7098 9.03125 17.1429C9.03125 21.5759 12.6039 25.1786 17 25.1786C21.3961 25.1786 24.9687 21.5759 24.9687 17.1429ZM22.8437 17.1429C22.8437 20.3906 20.2207 23.0357 17 23.0357C13.7793 23.0357 11.1562 20.3906 11.1562 17.1429C11.1562 13.8951 13.7793 11.25 17 11.25C20.2207 11.25 22.8437 13.8951 22.8437 17.1429Z" fill="#0A1C1D"/>
</svg>
