<svg width="22" height="20" viewBox="0 0 22 20" fill="none" xmlns="http://www.w3.org/2000/svg">
<path d="M2 16C1.73478 16 1.48043 15.8946 1.29289 15.7071C1.10536 15.5196 1 15.2652 1 15V2C1 1.73478 1.10536 1.48043 1.29289 1.29289C1.48043 1.10536 1.73478 1 2 1H7C8.06087 1 9.07828 1.42143 9.82843 2.17157C10.5786 2.92172 11 3.93913 11 5C11 3.93913 11.4214 2.92172 12.1716 2.17157C12.9217 1.42143 13.9391 1 15 1H20C20.2652 1 20.5196 1.10536 20.7071 1.29289C20.8946 1.48043 21 1.73478 21 2V15C21 15.2652 20.8946 15.5196 20.7071 15.7071C20.5196 15.8946 20.2652 16 20 16H14C13.2044 16 12.4413 16.3161 11.8787 16.8787C11.3161 17.4413 11 18.2044 11 19C11 18.2044 10.6839 17.4413 10.1213 16.8787C9.55871 16.3161 8.79565 16 8 16H2Z" stroke="#96B1AC" stroke-width="2" stroke-linecap="round" stroke-linejoin="round"/>
</svg>
