<svg width="111" height="86" viewBox="0 0 111 86" fill="none" xmlns="http://www.w3.org/2000/svg">
<path d="M92.5 73.7143V76.7857C92.5 81.8747 88.3587 86 83.25 86H9.25C4.1413 86 0 81.8747 0 76.7857V27.6429C0 22.5539 4.1413 18.4286 9.25 18.4286H12.3333V58.3571C12.3333 66.8251 19.2493 73.7143 27.75 73.7143H92.5ZM111 58.3571V9.21429C111 4.12531 106.859 0 101.75 0H27.75C22.6413 0 18.5 4.12531 18.5 9.21429V58.3571C18.5 63.4461 22.6413 67.5714 27.75 67.5714H101.75C106.859 67.5714 111 63.4461 111 58.3571ZM49.3333 18.4286C49.3333 23.5175 45.192 27.6429 40.0833 27.6429C34.9746 27.6429 30.8333 23.5175 30.8333 18.4286C30.8333 13.3396 34.9746 9.21429 40.0833 9.21429C45.192 9.21429 49.3333 13.3396 49.3333 18.4286ZM30.8333 46.0714L41.5315 35.4145C42.4346 34.515 43.8988 34.515 44.802 35.4145L52.4167 43L78.5315 16.986C79.4346 16.0864 80.8988 16.0864 81.802 16.986L98.6667 33.7857V55.2857H30.8333V46.0714Z" fill="#009688"/>
</svg>
