<svg width="134" height="96" viewBox="0 0 134 96" fill="none" xmlns="http://www.w3.org/2000/svg">
<path d="M111.287 82.0861V85.4947C111.287 91.1422 106.319 95.7203 100.19 95.7203H11.4178C5.28931 95.7203 0.321289 91.1422 0.321289 85.4947V30.9581C0.321289 25.3106 5.28931 20.7325 11.4178 20.7325H15.1167V65.0434C15.1167 74.4408 23.4132 82.0861 33.6109 82.0861H111.287ZM133.48 65.0434V10.5069C133.48 4.85934 128.512 0.28125 122.383 0.28125H33.6109C27.4824 0.28125 22.5144 4.85934 22.5144 10.5069V65.0434C22.5144 70.691 27.4824 75.2691 33.6109 75.2691H122.383C128.512 75.2691 133.48 70.691 133.48 65.0434ZM59.5029 20.7325C59.5029 26.38 54.5349 30.9581 48.4063 30.9581C42.2778 30.9581 37.3098 26.38 37.3098 20.7325C37.3098 15.085 42.2778 10.5069 48.4063 10.5069C54.5349 10.5069 59.5029 15.085 59.5029 20.7325ZM37.3098 51.4093L50.1436 39.5827C51.2269 38.5845 52.9834 38.5845 54.067 39.5827L63.2017 48.0008L94.5298 19.1315C95.6131 18.1332 97.3696 18.1332 98.4532 19.1315L118.684 37.7752V61.6349H37.3098V51.4093Z" fill="#0A1C1D"/>
</svg>
