<svg xmlns="http://www.w3.org/2000/svg" viewBox="0 0 442.38 437.51"><defs><style>.cls-1{fill:#fff;}.cls-2{fill:#3f2534;}.cls-3{fill:#00b2e5;}.cls-4{fill:#00d0db;}.cls-5{fill:#ff6872;}.cls-6{fill:#8dc63f;}.cls-7{fill:#ffca4d;}</style></defs><g id="Layer_2" data-name="Layer 2"><g id="OBJECTS"><ellipse class="cls-1" cx="221.19" cy="221.65" rx="220.57" ry="215.85"/><path class="cls-2" d="M79.78,391.27c23.36,18,53.18,32.8,81.7,32.38,47-.7,42.88-46,42.3-50.82-26.4-101.56-93.35-130-93.35-130,50,18.26,80.58,57.34,99.3,99.13-1-124.16-72.68-169.32-72.68-169.32,40.22,22.54,63.56,58.14,76.75,96l7.39-147.87,7.39,147.86c13.19-37.86,36.53-73.46,76.75-96,0,0-71.69,45.16-72.68,169.32,18.71-41.79,49.3-80.87,99.3-99.13,0,0-67,28.46-93.35,130-.58,4.81-4.71,50.12,42.3,50.82,28.52.42,58.35-14.39,81.71-32.39A220.7,220.7,0,0,0,442.38,221.2C442.38,99,343.35,0,221.19,0S0,99,0,221.2A220.7,220.7,0,0,0,79.78,391.27Z"/><path class="cls-3" d="M176.64,294.05c-8.22-27.27-19.87-60.3-43.21-75.52-25-16.3-61-16.35-90.53-11.95,7.92,28.75,22.51,61.65,47.53,77.95C113.54,299.57,148.61,297.4,176.64,294.05Z"/><path class="cls-4" d="M95.49,101.06c-1.48,27.65-1.74,61.71,14.59,83.33,17.51,23.17,50.4,35.1,78.83,40.83,2.24-28.91-.23-63.82-17.72-87C155,116.86,122.23,107.25,95.49,101.06Z"/><path class="cls-5" d="M266,294.05c8.22-27.27,19.87-60.3,43.21-75.52,25-16.3,61-16.35,90.53-11.95-7.93,28.75-22.51,61.65-47.53,77.95C329.06,299.57,294,297.4,266,294.05Z"/><path class="cls-3" d="M137.78,305.56c-14.12,1.71-27.27,12.69-36.7,23.31,11.68,8.08,27.06,15.62,41.18,13.93,13-1.57,25.18-13.08,34.38-22.88C165.31,312.48,151,304,137.78,305.56Z"/><path class="cls-4" d="M96.86,191.5c-3.69-14.05-9-31.1-20.64-39.29-12.47-8.77-30.81-9.46-45.93-7.76,3.52,14.81,10.34,31.84,22.8,40.61C64.59,193.16,82.51,192.7,96.86,191.5Z"/><path class="cls-6" d="M165.17,110c4.06-13.93,8.26-31.27,2.52-44.25-6.18-13.92-21.53-23.93-35.35-30.24C127.74,49.94,124.83,68.05,131,82,136.68,94.79,152.27,103.61,165.17,110Z"/><path class="cls-5" d="M301.41,305.56c14.11,1.71,27.27,12.69,36.7,23.31C326.43,337,311,344.49,296.93,342.8c-13-1.57-25.18-13.08-34.39-22.88C273.88,312.48,288.23,304,301.41,305.56Z"/><path class="cls-5" d="M342.32,191.5c3.7-14.05,9-31.1,20.65-39.29,12.47-8.77,30.81-9.46,45.93-7.76-3.52,14.81-10.35,31.84-22.8,40.61C374.6,193.16,356.68,192.7,342.32,191.5Z"/><path class="cls-7" d="M274,110C270,96,265.76,78.69,271.5,65.71c6.18-13.92,21.53-23.93,35.35-30.24,4.59,14.47,7.5,32.58,1.34,46.48C302.5,94.79,286.92,103.61,274,110Z"/><path class="cls-7" d="M347.11,101.06c1.48,27.65,1.74,61.71-14.59,83.33-17.51,23.17-50.4,35.1-78.83,40.83-2.24-28.91.23-63.82,17.72-87C287.58,116.86,320.37,107.25,347.11,101.06Z"/><path class="cls-6" d="M222.06,28.22c-20.17,22.31-40.27,52.53-40.59,82.64-.28,27.82,20.55,56.49,38.59,78.52,18.73-21.76,40.54-49.56,40.85-77.67C261.21,81.59,241.78,50.94,222.06,28.22Z"/></g></g></svg>