<svg width="77" height="96" viewBox="0 0 77 96" fill="none" xmlns="http://www.w3.org/2000/svg">
<path d="M38.495 0C59.7202 0 76.99 21.4469 76.99 47.8108C76.99 74.1747 59.7202 95.6216 38.495 95.6216C17.2698 95.6216 0 74.1747 0 47.8108C0 21.4469 17.2698 0 38.495 0ZM36.0891 5.18873C19.2956 6.7061 5.89936 23.8953 4.91292 45.2945H36.0891V39.9044C31.9508 38.7796 28.8712 34.8717 28.8712 30.1963V20.1309C28.8712 15.4555 31.9508 11.5476 36.0891 10.4228V5.18873ZM33.6831 20.1309V30.1963C33.6831 32.9719 35.8413 35.229 38.495 35.229C41.1487 35.229 43.3069 32.9719 43.3069 30.1963V20.1309C43.3069 17.3553 41.1487 15.0982 38.495 15.0982C35.8413 15.0982 33.6831 17.3553 33.6831 20.1309ZM40.9009 5.18873V10.4253C45.0391 11.5501 48.1188 15.458 48.1188 20.1334V30.1988C48.1188 34.8742 45.0391 38.7821 40.9009 39.9069V45.2945H72.0771C71.0906 23.8953 57.6944 6.7061 40.9009 5.18873ZM38.495 90.5889C56.4 90.5889 71.0425 72.7429 72.0771 50.3272H4.91292C5.94748 72.7429 20.59 90.5889 38.495 90.5889Z" fill="white"/>
</svg>
