<svg id="eD6yhdx398N1" xmlns="http://www.w3.org/2000/svg" xmlns:xlink="http://www.w3.org/1999/xlink" viewBox="0 0 300 300" shape-rendering="geometricPrecision" text-rendering="geometricPrecision" style="background-color:transparent"><defs><linearGradient id="eD6yhdx398N2-fill" x1="0.946202" y1="1" x2="0.174077" y2="0" spreadMethod="pad" gradientUnits="objectBoundingBox" gradientTransform="translate(0 0)"><stop id="eD6yhdx398N2-fill-0" offset="0%" stop-color="#093b8e"/><stop id="eD6yhdx398N2-fill-1" offset="100%" stop-color="#71f6b8"/></linearGradient></defs><path d="M-103.988209,-0.656077C-105.300364,-80.697475,-83.649821,-104.768424,0,-104.378317s104.644287,19.088303,104.378317,104.378317-16.792033,103.332132-104.378317,104.378317-102.676055-19.74438-103.988209-105.034394Z" transform="matrix(1.055765 0 0 1.053653 149.798762 149.982705)" fill="url(#eD6yhdx398N2-fill)" stroke-width="0"/><path d="M60.000002,123.665974c0,0,0,0,58.288492-38.856776c58.274689,38.856776,58.274689,38.856776,58.274689,38.856776s0,67.999359,0,67.999359-42.740363,0-42.740363,0s0-25.356777,0-38.856776c-12,0-19.068652,0-31.068652,0c0,13.499999,0,38.856776,0,38.856776q-42.754166,0-42.754166,0c0,0,0-67.999359,0-67.999359Z" transform="matrix(1.028342 0 0 1.029419 28.161711 2.45879)" fill="#fff" stroke-width="0"/></svg>
