<svg width="98" height="116" viewBox="0 0 98 116" fill="none" xmlns="http://www.w3.org/2000/svg">
<path d="M60.0576 15.107C58.6763 15.107 57.5552 13.979 57.5552 12.5891V2.51783C57.5552 1.12799 58.6763 0 60.0576 0C61.439 0 62.56 1.12799 62.56 2.51783V12.5891C62.56 13.979 61.439 15.107 60.0576 15.107ZM84.3485 16.8871C85.3269 15.9026 85.3269 14.3113 84.3485 13.3269C83.37 12.3424 81.7885 12.3424 80.8101 13.3269L73.3029 20.8803C72.3244 21.8648 72.3244 23.4561 73.3029 24.4405C74.2813 25.425 75.8628 25.425 76.8413 24.4405L84.3485 16.8871ZM82.5793 37.7674C82.5793 39.1572 83.7003 40.2852 85.0817 40.2852H95.0913C96.4726 40.2852 97.5937 39.1572 97.5937 37.7674C97.5937 36.3776 96.4726 35.2496 95.0913 35.2496H85.0817C83.7003 35.2496 82.5793 36.3776 82.5793 37.7674ZM40.0384 20.1426C62.1146 20.1426 80.0769 41.602 80.0769 67.9813C80.0769 94.3606 62.1146 115.82 40.0384 115.82C17.9622 115.82 0 94.3606 0 67.9813C0 41.602 17.9622 20.1426 40.0384 20.1426ZM37.536 25.3344C20.0693 26.8526 6.13589 44.0519 5.1099 65.4635H37.536V60.0703C33.2319 58.9448 30.0288 55.0346 30.0288 50.3565V40.2852C30.0288 35.6071 33.2319 31.6969 37.536 30.5714V25.3344ZM35.0336 40.2852V50.3565C35.0336 53.1337 37.2783 55.3922 40.0384 55.3922C42.7986 55.3922 45.0432 53.1337 45.0432 50.3565V40.2852C45.0432 37.5081 42.7986 35.2496 40.0384 35.2496C37.2783 35.2496 35.0336 37.5081 35.0336 40.2852ZM42.5408 25.3344V30.574C46.845 31.6994 50.048 35.6096 50.048 40.2877V50.359C50.048 55.0372 46.845 58.9473 42.5408 60.0728V65.4635H74.967C73.941 44.0519 60.0076 26.8526 42.5408 25.3344ZM40.0384 110.784C58.6613 110.784 73.8909 92.9279 74.967 70.4991H5.1099C6.18594 92.9279 21.4156 110.784 40.0384 110.784Z" fill="white"/>
</svg>
